<svg xmlns="http://www.w3.org/2000/svg" viewBox="0 0 512 512">
  <defs>
    <linearGradient id="bg" x1="0%" y1="0%" x2="100%" y2="100%">
      <stop offset="0%" stop-color="#201a0f" />
      <stop offset="100%" stop-color="#0d0d0d" />
    </linearGradient>
    <linearGradient id="accent" x1="0%" y1="0%" x2="100%" y2="100%">
      <stop offset="0%" stop-color="#f5d78e" />
      <stop offset="100%" stop-color="#c8922a" />
    </linearGradient>
  </defs>

  <rect x="24" y="24" width="464" height="464" rx="108" fill="url(#bg)" />
  <rect x="56" y="56" width="400" height="400" rx="86" fill="#151515" />
  <path d="M140 166h232a30 30 0 0 1 30 30v120a30 30 0 0 1-30 30H140a30 30 0 0 1-30-30V196a30 30 0 0 1 30-30Z" fill="none" stroke="url(#accent)" stroke-width="22"/>
  <path d="M177 214h158M177 256h158M177 298h96" stroke="url(#accent)" stroke-width="20" stroke-linecap="round"/>
  <circle cx="336" cy="298" r="26" fill="url(#accent)" />
</svg>
