<svg xmlns="http://www.w3.org/2000/svg" viewBox="0 0 512 512">
  <defs>
    <linearGradient id="bg" x1="0%" y1="0%" x2="100%" y2="100%">
      <stop offset="0%" stop-color="#1a1a1a" />
      <stop offset="100%" stop-color="#0d0d0d" />
    </linearGradient>
    <linearGradient id="gold" x1="0%" y1="0%" x2="100%" y2="100%">
      <stop offset="0%" stop-color="#f5d78e" />
      <stop offset="100%" stop-color="#c8922a" />
    </linearGradient>
  </defs>

  <rect x="24" y="24" width="464" height="464" rx="108" fill="url(#bg)" />
  <rect x="72" y="72" width="368" height="368" rx="84" fill="#131313" stroke="#2a2a2a" stroke-width="10" />

  <!-- S principal da marca -->
  <path d="M332 160h-95c-36 0-64 23-64 56 0 32 24 46 61 55l43 10c19 4 28 10 28 21 0 13-13 21-34 21h-101"
        fill="none" stroke="url(#gold)" stroke-width="34" stroke-linecap="round" stroke-linejoin="round" />

  <!-- Selo sutil de plataforma (coroa minimalista) -->
  <path d="M336 362 350 335l18 22 19-22 14 27z" fill="#f2d08a" />
  <path d="M334 368h70" stroke="#c8922a" stroke-width="8" stroke-linecap="round" />
</svg>
